<svg width="1200" height="760" viewBox="0 0 1200 760" fill="none" xmlns="http://www.w3.org/2000/svg">
  <defs>
    <linearGradient id="bg" x1="120" y1="40" x2="1100" y2="740" gradientUnits="userSpaceOnUse">
      <stop stop-color="#0B1221"/>
      <stop offset="1" stop-color="#1E293B"/>
    </linearGradient>
    <linearGradient id="panel" x1="200" y1="150" x2="950" y2="690" gradientUnits="userSpaceOnUse">
      <stop stop-color="#1D4ED8" stop-opacity="0.26"/>
      <stop offset="1" stop-color="#22D3EE" stop-opacity="0.16"/>
    </linearGradient>
  </defs>
  <rect width="1200" height="760" rx="34" fill="url(#bg)"/>
  <rect x="72" y="72" width="1056" height="616" rx="24" fill="#0F172A" stroke="#334155"/>
  <rect x="110" y="112" width="180" height="24" rx="12" fill="#334155"/>
  <rect x="940" y="112" width="150" height="24" rx="12" fill="#1D4ED8" fill-opacity="0.9"/>
  <rect x="110" y="166" width="280" height="460" rx="18" fill="#111827" stroke="#334155"/>
  <rect x="430" y="166" width="660" height="460" rx="20" fill="url(#panel)" stroke="#475569"/>
  <rect x="150" y="208" width="200" height="14" rx="7" fill="#475569"/>
  <rect x="150" y="246" width="160" height="12" rx="6" fill="#334155"/>
  <rect x="150" y="282" width="130" height="12" rx="6" fill="#334155"/>
  <rect x="150" y="354" width="90" height="26" rx="13" fill="#1D4ED8"/>
  <rect x="470" y="212" width="240" height="30" rx="15" fill="#93C5FD" fill-opacity="0.28"/>
  <rect x="470" y="270" width="580" height="26" rx="13" fill="#E2E8F0" fill-opacity="0.16"/>
  <rect x="470" y="312" width="510" height="26" rx="13" fill="#E2E8F0" fill-opacity="0.14"/>
  <rect x="470" y="354" width="540" height="26" rx="13" fill="#E2E8F0" fill-opacity="0.1"/>
  <rect x="470" y="422" width="180" height="96" rx="16" fill="#1E293B" stroke="#475569"/>
  <rect x="670" y="422" width="180" height="96" rx="16" fill="#1E293B" stroke="#475569"/>
  <rect x="870" y="422" width="180" height="96" rx="16" fill="#1E293B" stroke="#475569"/>
</svg>
